<svg width="730" height="737" viewBox="0 0 730 737" fill="none" xmlns="http://www.w3.org/2000/svg">
<path d="M628.026 456.178C626.902 463.495 621.412 469.378 614.19 471.004L540.903 487.515L468.701 503.026C460.878 504.707 452.885 501.022 449.083 493.981L415.21 431.266L381.627 367.482C378.074 360.734 379.159 352.479 384.335 346.879L436.058 290.913L488.317 235.447C493.547 229.897 501.707 228.244 508.684 231.322L574.636 260.418L639.542 289.878C646.828 293.185 651.056 300.904 649.92 308.824L639.434 381.925L628.026 456.178Z" fill="white" fill-opacity="0.04"/>
<path d="M311.852 122.311C318.674 125.186 323.041 131.944 322.858 139.344L321.001 214.445L318.439 288.25C318.162 296.247 312.639 303.1 304.884 305.071L235.803 322.63L165.755 339.647C158.344 341.447 150.604 338.383 146.434 331.997L104.768 268.19L63.7188 203.984C59.611 197.559 59.9978 189.242 64.6842 183.226L108.983 126.359L153.379 70.595C158.363 64.3353 166.88 62.1167 174.284 65.1497L242.622 93.143L311.852 122.311Z" fill="white" fill-opacity="0.04"/>
<path d="M366.583 542.497C369.96 549.085 368.958 557.068 364.06 562.618L301.63 633.346L239.359 702.493C234.004 708.438 225.368 710.136 218.161 706.659L137.177 667.586L55.8814 627.296C49.0485 623.91 45.0911 616.585 46.0038 609.014L57.4637 513.943L69.8383 418.988C70.8238 411.426 76.4676 405.305 83.9252 403.711L172.652 384.747L260.778 366.886C268.62 365.296 276.57 369.074 280.29 376.158L323.556 458.542L366.583 542.497Z" fill="white" fill-opacity="0.04"/>
</svg>
