<svg width="100" height="100" viewBox="0 0 100 100" fill="none" xmlns="http://www.w3.org/2000/svg">
<circle cx="50" cy="50" r="50" fill="#4154F1"/>
<path d="M51 76.147C64.669 76.147 75.75 65.059 75.75 51.3813C75.75 37.7036 64.669 26.6156 51 26.6156C37.331 26.6156 26.25 37.7036 26.25 51.3813C26.25 65.059 37.331 76.147 51 76.147Z" stroke="white" stroke-width="4" stroke-miterlimit="10"/>
<path d="M27.668 43.1261H74.332" stroke="white" stroke-width="4" stroke-linecap="round" stroke-linejoin="round"/>
<path d="M27.668 59.6365H74.332" stroke="white" stroke-width="4" stroke-linecap="round" stroke-linejoin="round"/>
<path d="M51 75.4762C56.6954 75.4762 61.3125 64.6885 61.3125 51.3812C61.3125 38.0739 56.6954 27.2863 51 27.2863C45.3046 27.2863 40.6875 38.0739 40.6875 51.3812C40.6875 64.6885 45.3046 75.4762 51 75.4762Z" stroke="white" stroke-width="4" stroke-miterlimit="10"/>
</svg>
