<svg width="100" height="100" viewBox="0 0 100 100" fill="none" xmlns="http://www.w3.org/2000/svg">
<path d="M0 50C0 77.6142 22.3858 100 50 100C77.6142 100 100 77.6142 100 50C100 22.3858 77.6142 0 50 0C22.3858 0 0 22.3858 0 50Z" fill="#FF0000"/>
<path d="M73.75 37.8125C73.125 35.625 71.5625 34.0625 69.375 33.4375C65.625 32.5 49.6875 32.5 49.6875 32.5C49.6875 32.5 34.0625 32.5 30 33.4375C27.8125 34.0625 26.25 35.625 25.625 37.8125C25 41.875 25 50 25 50C25 50 25 58.125 25.9375 62.1875C26.5625 64.375 28.125 65.9375 30.3125 66.5625C34.0625 67.5 50 67.5 50 67.5C50 67.5 65.625 67.5 69.6875 66.5625C71.875 65.9375 73.4375 64.375 74.0625 62.1875C75 58.125 75 50 75 50C75 50 75 41.875 73.75 37.8125ZM45 57.5V42.5L58.125 50L45 57.5Z" fill="white"/>
</svg>
