<svg width="100" height="100" viewBox="0 0 100 100" fill="none" xmlns="http://www.w3.org/2000/svg">
<path d="M0 50C0 77.6142 22.3858 100 50 100C77.6142 100 100 77.6142 100 50C100 22.3858 77.6142 0 50 0C22.3858 0 0 22.3858 0 50Z" fill="#0088CC"/>
<path d="M25.3122 49.0884C38.734 43.2408 47.6839 39.3857 52.162 37.5231C64.948 32.2049 67.6048 31.2811 69.3365 31.2503C69.7173 31.2439 70.5689 31.3383 71.1205 31.7859C71.5863 32.1639 71.7145 32.6744 71.7758 33.0327C71.8371 33.3911 71.9135 34.2074 71.8528 34.8452C71.1599 42.1253 68.1618 59.7922 66.6366 67.946C65.9912 71.3962 64.7204 72.553 63.4902 72.6662C60.8165 72.9123 58.7862 70.8993 56.1967 69.2018C52.1445 66.5455 49.8553 64.892 45.922 62.3C41.3763 59.3045 44.3231 57.6581 46.9136 54.9675C47.5916 54.2633 59.3718 43.5483 59.5998 42.5763C59.6283 42.4547 59.6548 42.0016 59.3856 41.7623C59.1164 41.523 58.719 41.6049 58.4323 41.6699C58.0259 41.7622 51.5525 46.0408 39.0122 54.5059C37.1747 55.7677 35.5104 56.3824 34.0192 56.3502C32.3754 56.3147 29.2132 55.4207 26.8624 54.6566C23.9791 53.7194 21.6876 53.2238 21.8871 51.6321C21.991 50.803 23.1328 49.9551 25.3122 49.0884Z" fill="white"/>
</svg>
