<svg width="100" height="100" viewBox="0 0 100 100" fill="none" xmlns="http://www.w3.org/2000/svg">
<path d="M0 50C0 77.6142 22.3858 100 50 100C77.6142 100 100 77.6142 100 50C100 22.3858 77.6142 0 50 0C22.3858 0 0 22.3858 0 50Z" fill="#25D366"/>
<path fill-rule="evenodd" clip-rule="evenodd" d="M67.5 32.1875C62.8125 27.5 56.5625 25 50 25C36.25 25 25 36.25 25 50C25 54.375 26.25 58.75 28.4375 62.5L25 75L38.125 71.5625C41.875 73.4375 45.9375 74.6875 50 74.6875C63.75 74.6875 75 63.4375 75 49.6875C75 43.125 72.1875 36.875 67.5 32.1875ZM50 70.625C46.25 70.625 42.5 69.6875 39.375 67.8125L38.75 67.5L30.9375 69.6875L33.125 62.1875L32.5 61.25C30.3125 57.8125 29.375 54.0625 29.375 50.3125C29.375 39.0625 38.75 29.6875 50 29.6875C55.625 29.6875 60.625 31.875 64.6875 35.625C68.75 39.6875 70.625 44.6875 70.625 50.3125C70.625 61.25 61.5625 70.625 50 70.625ZM61.25 55C60.625 54.6875 57.5 53.125 56.875 53.125C56.25 52.8125 55.9375 52.8125 55.625 53.4375C55.3125 54.0625 54.0625 55.3125 53.75 55.9375C53.4375 56.25 53.125 56.25 52.5 56.25C51.875 55.9375 50 55.3125 47.5 53.125C45.625 51.5625 44.375 49.375 44.0625 48.75C43.75 48.125 44.0625 47.8125 44.375 47.5C44.6875 47.1875 45 46.875 45.3125 46.5625C45.625 46.25 45.625 45.9375 45.9375 45.625C46.25 45.3125 45.9375 45 45.9375 44.6875C45.9375 44.375 44.6875 41.25 44.0625 40C43.75 39.0625 43.125 39.0625 42.8125 39.0625C42.5 39.0625 42.1875 39.0625 41.5625 39.0625C41.25 39.0625 40.625 39.0625 40 39.6875C39.375 40.3125 37.8125 41.875 37.8125 45C37.8125 48.125 40 50.9375 40.3125 51.5625C40.625 51.875 44.6875 58.4375 50.9375 60.9375C56.25 63.125 57.1875 62.5 58.4375 62.5C59.6875 62.5 62.1875 60.9375 62.5 59.6875C63.125 58.125 63.125 56.875 62.8125 56.875C62.5 55.3125 61.875 55.3125 61.25 55Z" fill="white"/>
</svg>
