<svg width="100" height="100" viewBox="0 0 100 100" fill="none" xmlns="http://www.w3.org/2000/svg">
<path d="M100 50C100 22.3858 77.6142 0 50 0C22.3858 0 0 22.3858 0 50C0 77.6142 22.3858 100 50 100C77.6142 100 100 77.6142 100 50Z" fill="#F8F8F8"/>
<path d="M25 49C25 37.6833 25 32.0333 28.5 28.5C32.05 25 37.7 25 49 25H51C62.3167 25 67.9667 25 71.5 28.5C75 32.05 75 37.7 75 49V51C75 62.3167 75 67.9667 71.5 71.5C67.95 75 62.3 75 51 75H49C37.6833 75 32.0333 75 28.5 71.5C25 67.95 25 62.3 25 51V49Z" fill="#0077FF"/>
<path d="M51.5998 61.0166C40.1998 61.0166 33.6998 53.2166 33.4331 40.2166H39.1664C39.3498 49.75 43.5498 53.7833 46.8831 54.6166V40.2166H52.2664V48.4333C55.5498 48.0833 59.0164 44.3333 60.1831 40.2H65.5498C65.1122 42.3396 64.2381 44.3659 62.982 46.1525C61.726 47.9391 60.115 49.4474 58.2498 50.5833C60.3313 51.6193 62.1696 53.0849 63.6434 54.8833C65.1171 56.6817 66.1929 58.7721 66.7998 61.0166H60.8831C59.6164 57.0666 56.4498 54 52.2664 53.5833V61.0166H51.6164H51.5998Z" fill="white"/>
</svg>
