<svg width="175" height="137" viewBox="0 0 175 137" fill="none" xmlns="http://www.w3.org/2000/svg">
<path d="M160.628 2.67632e-06L175 12.764C165.794 20.8951 158.28 28.7426 152.456 36.3064C146.82 43.6812 143.25 49.2595 141.747 53.0414C140.244 56.8233 138.835 61.3616 137.52 66.6563L138.647 68.3582C151.235 68.3582 160.44 71.1001 166.264 76.5838C172.088 82.0676 175 90.5769 175 102.112C175 110.999 171.806 119.036 165.419 126.222C159.219 133.407 151.422 137 142.029 137C131.32 137 122.397 133.974 115.258 127.923C108.119 121.872 104.549 112.134 104.549 98.7081C104.549 80.9331 109.997 62.5908 120.894 43.6812C131.978 24.5825 145.223 10.0221 160.628 2.67632e-06ZM56.0789 2.67632e-06L70.4509 12.764C61.2453 20.8951 53.8245 28.648 48.1884 36.0228C42.5524 43.3975 38.8889 49.0704 37.1981 53.0414C35.6952 57.0124 34.2861 61.5507 32.9711 66.6563L34.0983 68.3582C46.6855 68.3582 55.8911 71.1001 61.715 76.5838C67.539 82.0676 70.4509 90.5769 70.4509 102.112C70.4509 110.999 67.2572 119.036 60.8696 126.222C54.6699 133.407 46.8734 137 37.4799 137C26.7714 137 17.8476 133.974 10.7086 127.923C3.56956 121.872 4.45594e-05 112.134 4.45594e-05 98.7081C4.45594e-05 80.9331 5.44825 62.5908 16.3446 43.6812C27.4289 24.5825 40.6737 10.0221 56.0789 2.67632e-06Z" fill="black" fill-opacity="0.09"/>
</svg>
