<svg width="557" height="429" viewBox="0 0 557 429" fill="none" xmlns="http://www.w3.org/2000/svg">
<path d="M161.979 28.5253C168.893 25.8816 176.721 27.741 181.709 33.2117L214.098 68.7402L245.291 103.65C250.623 109.616 251.376 118.385 247.139 125.173L223.293 163.382L198.613 202.01C194.507 208.436 186.797 211.578 179.37 209.851L131.949 198.829L84.6376 187.35C77.2266 185.552 71.7529 179.279 70.9753 171.693L66.3015 126.093L62.1838 81.242C61.4523 73.2742 66.0681 65.78 73.5129 62.8482L117.072 45.6944L161.979 28.5253Z" fill="white" fill-opacity="0.04"/>
<path d="M58.4462 216.84C62.8724 210.906 70.4802 208.288 77.621 210.24L123.996 222.918L169.029 235.713C176.725 237.9 182.054 244.905 182.109 252.906L182.413 297.945L182.238 343.783C182.209 351.409 177.378 358.189 170.179 360.706L124.222 376.773L78.1131 392.397C70.8905 394.844 62.9095 392.475 58.1926 386.483L29.8405 350.464L2.35856 314.78C-2.52356 308.441 -2.63513 299.64 2.08473 293.179L29.7006 255.377L58.4462 216.84Z" fill="white" fill-opacity="0.04"/>
<path d="M308.324 117.207C312.378 111.013 319.811 107.933 327.058 109.443L397.845 124.201L467.236 139.391C475.053 141.102 480.801 147.767 481.346 155.75L486.01 224.138L489.996 293.376C490.435 300.989 486.028 308.053 478.997 311.006L411.378 339.409L343.489 367.159C336.43 370.045 328.319 368.169 323.244 362.477L277.088 310.713L232.013 259.071C226.751 253.043 226.1 244.266 230.415 237.528L268.723 177.707L308.324 117.207Z" fill="white" fill-opacity="0.04"/>
</svg>
