<svg width="31" height="30" viewBox="0 0 31 30" fill="none" xmlns="http://www.w3.org/2000/svg">
<path d="M0.725586 15.0335C0.725586 23.2087 7.395 29.836 15.6221 29.836C23.8493 29.836 30.5187 23.2087 30.5187 15.0335C30.5187 6.85838 23.8493 0.23111 15.6221 0.23111C7.395 0.23111 0.725586 6.85838 0.725586 15.0335Z" fill="#F00073"/>
<path d="M15.9014 9.02005C17.9497 9.02005 18.229 9.02005 19.0669 9.02005C19.8118 9.02005 20.1842 9.20508 20.4635 9.2976C20.8359 9.48263 21.1152 9.57514 21.3945 9.85269C21.6738 10.1302 21.86 10.4078 21.9531 10.7778C22.0462 11.0554 22.1393 11.4254 22.2324 12.1656C22.2324 12.9982 22.2324 13.1832 22.2324 15.3111C22.2324 17.4389 22.2324 17.624 22.2324 18.4566C22.2324 19.1967 22.0462 19.5668 21.9531 19.8443C21.7669 20.2144 21.6738 20.4919 21.3945 20.7695C21.1152 21.047 20.8359 21.2321 20.4635 21.3246C20.1842 21.4171 19.8118 21.5096 19.0669 21.6021C18.229 21.6021 18.0428 21.6021 15.9014 21.6021C13.76 21.6021 13.5738 21.6021 12.7359 21.6021C11.9911 21.6021 11.6187 21.4171 11.3393 21.3246C10.9669 21.1395 10.6876 21.047 10.4083 20.7695C10.129 20.4919 9.94279 20.2144 9.84969 19.8443C9.75659 19.5668 9.66348 19.1967 9.57038 18.4566C9.57038 17.624 9.57038 17.4389 9.57038 15.3111C9.57038 13.1832 9.57038 12.9982 9.57038 12.1656C9.57038 11.4254 9.75659 11.0554 9.84969 10.7778C10.0359 10.4078 10.129 10.1302 10.4083 9.85269C10.6876 9.57514 10.9669 9.39011 11.3393 9.2976C11.6187 9.20508 11.9911 9.11257 12.7359 9.02005C13.5738 9.02005 13.8531 9.02005 15.9014 9.02005ZM15.9014 7.63232C13.76 7.63232 13.5738 7.63232 12.7359 7.63232C11.898 7.63232 11.3393 7.81736 10.8738 8.00239C10.4083 8.18742 9.94279 8.46496 9.47728 8.92754C9.01176 9.39011 8.82555 9.76017 8.54624 10.3153C8.36004 10.7778 8.26693 11.3329 8.17383 12.1656C8.17383 12.9982 8.17383 13.2758 8.17383 15.3111C8.17383 17.4389 8.17383 17.624 8.17383 18.4566C8.17383 19.2892 8.36004 19.8443 8.54624 20.3069C8.73245 20.7695 9.01176 21.2321 9.47728 21.6946C9.94279 22.1572 10.3152 22.3422 10.8738 22.6198C11.3393 22.8048 11.898 22.8973 12.7359 22.9898C13.5738 22.9898 13.8531 22.9898 15.9014 22.9898C17.9497 22.9898 18.229 22.9898 19.0669 22.9898C19.9049 22.9898 20.4635 22.8048 20.929 22.6198C21.3945 22.4348 21.86 22.1572 22.3256 21.6946C22.7911 21.2321 22.9773 20.862 23.2566 20.3069C23.4428 19.8443 23.5359 19.2892 23.629 18.4566C23.629 17.624 23.629 17.3464 23.629 15.3111C23.629 13.2758 23.629 12.9982 23.629 12.1656C23.629 11.3329 23.4428 10.7778 23.2566 10.3153C23.0704 9.85269 22.7911 9.39011 22.3256 8.92754C21.86 8.46496 21.4876 8.27993 20.929 8.00239C20.4635 7.81736 19.9049 7.72484 19.0669 7.63232C18.229 7.63232 18.0428 7.63232 15.9014 7.63232Z" fill="white"/>
<path d="M15.9014 11.3329C13.6669 11.3329 11.898 13.0907 11.898 15.3111C11.898 17.5314 13.6669 19.2892 15.9014 19.2892C18.1359 19.2892 19.9049 17.5314 19.9049 15.3111C19.9049 13.0907 18.1359 11.3329 15.9014 11.3329ZM15.9014 17.9015C14.5049 17.9015 13.2945 16.7913 13.2945 15.3111C13.2945 13.9234 14.4118 12.7207 15.9014 12.7207C17.298 12.7207 18.5083 13.8308 18.5083 15.3111C18.5083 16.6988 17.298 17.9015 15.9014 17.9015Z" fill="white"/>
<path d="M19.998 12.1656C20.5122 12.1656 20.929 11.7514 20.929 11.2404C20.929 10.7295 20.5122 10.3153 19.998 10.3153C19.4838 10.3153 19.0669 10.7295 19.0669 11.2404C19.0669 11.7514 19.4838 12.1656 19.998 12.1656Z" fill="white"/>
</svg>
