<svg width="31" height="30" viewBox="0 0 31 30" fill="none" xmlns="http://www.w3.org/2000/svg">
<path d="M0.415039 15.1834C0.415039 23.3502 7.08445 29.9707 15.3116 29.9707C23.5387 29.9707 30.2081 23.3502 30.2081 15.1834C30.2081 7.01658 23.5387 0.396088 15.3116 0.396088C7.08445 0.396088 0.415039 7.01658 0.415039 15.1834Z" fill="#25D366"/>
<path fill-rule="evenodd" clip-rule="evenodd" d="M20.5254 9.91541C19.1288 8.5291 17.2667 7.78973 15.3116 7.78973C11.215 7.78973 7.86328 11.1169 7.86328 15.1834C7.86328 16.4773 8.2357 17.7712 8.88742 18.8802L7.86328 22.577L11.7736 21.5604C12.8909 22.1149 14.1012 22.4846 15.3116 22.4846C19.4081 22.4846 22.7598 19.1575 22.7598 15.091C22.7598 13.1501 21.9219 11.3017 20.5254 9.91541ZM15.3116 21.2831C14.1943 21.2831 13.0771 21.0059 12.146 20.4513L11.9598 20.3589L9.63224 21.0059L10.284 18.7878L10.0978 18.5105C9.44603 17.4939 9.16672 16.3848 9.16672 15.2758C9.16672 11.9487 11.9598 9.17604 15.3116 9.17604C16.9874 9.17604 18.4771 9.82299 19.6874 10.932C20.8978 12.1335 21.4564 13.6122 21.4564 15.2758C21.4564 18.5105 18.7564 21.2831 15.3116 21.2831ZM18.6633 16.6621C18.4771 16.5697 17.5461 16.1076 17.3598 16.1076C17.1736 16.0152 17.0805 16.0152 16.9874 16.2C16.8943 16.3848 16.5219 16.7545 16.4288 16.9394C16.3357 17.0318 16.2426 17.0318 16.0564 17.0318C15.8702 16.9394 15.3116 16.7545 14.5667 16.1076C14.0081 15.6455 13.6357 14.9985 13.5426 14.8137C13.4495 14.6289 13.5426 14.5364 13.6357 14.444C13.7288 14.3516 13.8219 14.2592 13.915 14.1668C14.0081 14.0743 14.0081 13.9819 14.1012 13.8895C14.1943 13.7971 14.1012 13.7046 14.1012 13.6122C14.1012 13.5198 13.7288 12.5956 13.5426 12.2259C13.4495 11.9487 13.2633 11.9487 13.1702 11.9487C13.0771 11.9487 12.984 11.9487 12.7978 11.9487C12.7046 11.9487 12.5184 11.9487 12.3322 12.1335C12.146 12.3183 11.6805 12.7804 11.6805 13.7046C11.6805 14.6289 12.3322 15.4606 12.4253 15.6455C12.5184 15.7379 13.7288 17.6787 15.5909 18.4181C17.1736 19.065 17.4529 18.8802 17.8254 18.8802C18.1978 18.8802 18.9426 18.4181 19.0357 18.0484C19.2219 17.5863 19.2219 17.2166 19.1288 17.2166C19.0357 16.7545 18.8495 16.7545 18.6633 16.6621Z" fill="white"/>
</svg>
